<?xml version="1.0" encoding="utf-8"?>
<!-- created with cmmn-js / http://bpmn.io -->
<!DOCTYPE svg PUBLIC "-//W3C//DTD SVG 1.1//EN" "http://www.w3.org/Graphics/SVG/1.1/DTD/svg11.dtd">
<svg xmlns="http://www.w3.org/2000/svg" xmlns:xlink="http://www.w3.org/1999/xlink" width="1035.0001220703125" height="471" viewBox="364 -5 1035.0001220703125 471" version="1.1"><defs><marker id="association-start" viewBox="0 0 20 20" refX="1" refY="10" markerWidth="10" markerHeight="10" orient="auto"><path d="M 11 5 L 1 10 L 11 15" style="fill: none; stroke-width: 1.5px; stroke-linecap: round; stroke-dasharray: 10000, 1; stroke: black;"></path></marker><marker id="association-end" viewBox="0 0 20 20" refX="12" refY="10" markerWidth="10" markerHeight="10" orient="auto"><path d="M 1 5 L 11 10 L 1 15" style="fill: none; stroke-width: 1.5px; stroke-linecap: round; stroke-dasharray: 10000, 1; stroke: black;"></path></marker></defs><g class="djs-group"><g class="djs-element djs-shape" data-element-id="CasePlanModel_1rt875x" style="display: block;" transform="translate(370 19)"><g class="djs-visual"><rect x="0" y="0" width="1013" height="441" rx="0" ry="0" style="stroke: black; stroke-width: 2px; fill: white; fill-opacity: 0.95;"/><polygon points="10,0 20,-18 251.78125,-18 261.78125,0" style="fill: white; stroke: black; stroke-width: 2px; fill-opacity: 0.95; pointer-events: all;"/><text class="djs-label" style="font-family: Arial, sans-serif; font-size: 12px;" transform="translate(25 -19)"><tspan x="0" y="13.5">Arbeitsaufwand der Themen evaluieren</tspan></text><rect x="0" y="0" width="30" height="24" rx="0" ry="0" style="stroke: black; stroke-width: 1.5px; fill: white;" transform="translate(491.5 -17)"/><path d="m491.5,-17 m 0,12 l 30,0 m -20,-12 l 0, 24 m 10, -24 l 0, 24 m -10, -6 l 10,0" style="fill: none; stroke-width: 1.5px; stroke: black;"/></g><rect x="0" y="0" width="1013" height="441" class="djs-hit" style="fill: none; stroke-opacity: 0; stroke: white; stroke-width: 15px;"/><rect x="-6" y="-24" width="1025" height="471" class="djs-outline" style="fill: none;"/></g><g class="djs-children"><g class="djs-group"><g class="djs-element djs-shape" data-element-id="PlanItem_023b7yd" style="display: block;" transform="translate(410 34)"><g class="djs-visual"><polygon points="20,200 0,180 0,20 20,0 330,0 350,20 350,180 330,200" style="fill-opacity: 0.95; fill: white; stroke: black; stroke-width: 2px;"/><text class="djs-label" style="font-family: Arial, sans-serif; font-size: 12px;" transform="translate(20 0)"><tspan x="5" y="18.5">Thema sichten</tspan></text><rect x="0" y="0" width="14" height="14" rx="0" ry="0" style="stroke: black; stroke-width: 1px; fill: white;" transform="translate(168 183)"/><path d="m168,183 m 2,7 l 10,0" style="fill: none; stroke-width: 2px; stroke: black;"/><path d="m161,183 l 0,9 m 0,2 l0,3" style="fill: none; stroke-width: 3px; stroke: black;"/><path d="m188,183 m 3,0 l 0,14 m 6,-14 l 0,14 m -10,-10 l 14,0 m -14,6 l 14,0" style="fill: none; stroke-width: 2px; stroke: black;"/></g><rect x="0" y="0" width="350" height="200" class="djs-hit" style="fill: none; stroke-opacity: 0; stroke: white; stroke-width: 15px;"/><rect x="-6" y="-6" width="362" height="212" class="djs-outline" style="fill: none;"/></g><g class="djs-children"><g class="djs-group"><g class="djs-element djs-shape" data-element-id="PlanItem_199ex3v" style="display: block;" transform="translate(435 62)"><g class="djs-visual"><rect x="0" y="0" width="100" height="80" rx="10" ry="10" style="stroke: black; stroke-width: 2px; fill: white;"/><text class="djs-label" style="font-family: Arial, sans-serif; font-size: 12px;"><tspan x="15.8203125" y="29.88671875">Anforderung </tspan><tspan x="16.9921875" y="43.37109375">des Themas </tspan><tspan x="17.90625" y="56.85546875">indentifizien </tspan></text><path d="m43, 63 l 14,7 l -14,7 l 0,-14 z" style="fill: none; stroke-width: 1px; stroke: black;"/><path d="m 15,12 c 0.909,-0.845 1.594,-2.049 1.594,-3.385 0,-2.554 -1.805,-4.62199999 -4.357,-4.62199999 -2.55199998,0 -4.28799998,2.06799999 -4.28799998,4.62199999 0,1.348 0.974,2.562 1.89599998,3.405 -0.52899998,0.187 -5.669,2.097 -5.794,4.7560005 v 6.718 h 17 v -6.718 c 0,-2.2980005 -5.5279996,-4.5950005 -6.0509996,-4.7760005 zm -8,6 l 0,5.5 m 11,0 l 0,-5" style="fill: none; stroke-width: 0.5px; stroke: black;"/><path d="m 15,12 m 2.162,1.009 c 0,2.4470005 -2.158,4.4310005 -4.821,4.4310005 -2.66499998,0 -4.822,-1.981 -4.822,-4.4310005" style="fill: none; stroke-width: 0.5px; stroke: black;"/><path d="m 15,12 m -6.9,-3.80 c 0,0 2.25099998,-2.358 4.27399998,-1.177 2.024,1.181 4.221,1.537 4.124,0.965 -0.098,-0.57 -0.117,-3.79099999 -4.191,-4.13599999 -3.57499998,0.001 -4.20799998,3.36699999 -4.20699998,4.34799999 z" style="fill: black; stroke-width: 0.5px; stroke: black;"/></g><rect x="0" y="0" width="100" height="80" class="djs-hit" style="fill: none; stroke-opacity: 0; stroke: white; stroke-width: 15px;"/><rect x="-6" y="-6" width="112" height="92" class="djs-outline" style="fill: none;"/></g></g><g class="djs-group"><g class="djs-element djs-shape" data-element-id="PlanItem_1rfsymf" style="display: block;" transform="translate(594 62)"><g class="djs-visual"><rect x="0" y="0" width="100" height="80" rx="10" ry="10" style="stroke: black; stroke-width: 2px; fill: white;"/><text class="djs-label" style="font-family: Arial, sans-serif; font-size: 12px;"><tspan x="28.2421875" y="29.88671875">Ziel des </tspan><tspan x="27.578125" y="43.37109375">Themas </tspan><tspan x="20.25" y="56.85546875">bestimmen </tspan></text><path d="m43, 63 l 14,7 l -14,7 l 0,-14 z" style="fill: none; stroke-width: 1px; stroke: black;"/><path d="m 15,12 c 0.909,-0.845 1.594,-2.049 1.594,-3.385 0,-2.554 -1.805,-4.62199999 -4.357,-4.62199999 -2.55199998,0 -4.28799998,2.06799999 -4.28799998,4.62199999 0,1.348 0.974,2.562 1.89599998,3.405 -0.52899998,0.187 -5.669,2.097 -5.794,4.7560005 v 6.718 h 17 v -6.718 c 0,-2.2980005 -5.5279996,-4.5950005 -6.0509996,-4.7760005 zm -8,6 l 0,5.5 m 11,0 l 0,-5" style="fill: none; stroke-width: 0.5px; stroke: black;"/><path d="m 15,12 m 2.162,1.009 c 0,2.4470005 -2.158,4.4310005 -4.821,4.4310005 -2.66499998,0 -4.822,-1.981 -4.822,-4.4310005" style="fill: none; stroke-width: 0.5px; stroke: black;"/><path d="m 15,12 m -6.9,-3.80 c 0,0 2.25099998,-2.358 4.27399998,-1.177 2.024,1.181 4.221,1.537 4.124,0.965 -0.098,-0.57 -0.117,-3.79099999 -4.191,-4.13599999 -3.57499998,0.001 -4.20799998,3.36699999 -4.20699998,4.34799999 z" style="fill: black; stroke-width: 0.5px; stroke: black;"/></g><rect x="0" y="0" width="100" height="80" class="djs-hit" style="fill: none; stroke-opacity: 0; stroke: white; stroke-width: 15px;"/><rect x="-6" y="-6" width="112" height="92" class="djs-outline" style="fill: none;"/></g></g><g class="djs-group"><g class="djs-element djs-shape" data-element-id="PlanItem_09nnt40" style="display: block;" transform="translate(435 151)"><g class="djs-visual"><rect x="0" y="0" width="100" height="80" rx="10" ry="10" style="stroke: black; stroke-width: 2px; fill: white;"/><text class="djs-label" style="font-family: Arial, sans-serif; font-size: 12px;"><tspan x="12.3984375" y="36.62890625">Benötigte Zeit </tspan><tspan x="17.5703125" y="50.11328125">einschätzen </tspan></text><path d="m43, 63 l 14,7 l -14,7 l 0,-14 z" style="fill: none; stroke-width: 1px; stroke: black;"/><path d="m 15,12 c 0.909,-0.845 1.594,-2.049 1.594,-3.385 0,-2.554 -1.805,-4.62199999 -4.357,-4.62199999 -2.55199998,0 -4.28799998,2.06799999 -4.28799998,4.62199999 0,1.348 0.974,2.562 1.89599998,3.405 -0.52899998,0.187 -5.669,2.097 -5.794,4.7560005 v 6.718 h 17 v -6.718 c 0,-2.2980005 -5.5279996,-4.5950005 -6.0509996,-4.7760005 zm -8,6 l 0,5.5 m 11,0 l 0,-5" style="fill: none; stroke-width: 0.5px; stroke: black;"/><path d="m 15,12 m 2.162,1.009 c 0,2.4470005 -2.158,4.4310005 -4.821,4.4310005 -2.66499998,0 -4.822,-1.981 -4.822,-4.4310005" style="fill: none; stroke-width: 0.5px; stroke: black;"/><path d="m 15,12 m -6.9,-3.80 c 0,0 2.25099998,-2.358 4.27399998,-1.177 2.024,1.181 4.221,1.537 4.124,0.965 -0.098,-0.57 -0.117,-3.79099999 -4.191,-4.13599999 -3.57499998,0.001 -4.20799998,3.36699999 -4.20699998,4.34799999 z" style="fill: black; stroke-width: 0.5px; stroke: black;"/></g><rect x="0" y="0" width="100" height="80" class="djs-hit" style="fill: none; stroke-opacity: 0; stroke: white; stroke-width: 15px;"/><rect x="-6" y="-6" width="112" height="92" class="djs-outline" style="fill: none;"/></g></g></g></g><g class="djs-group"><g class="djs-element djs-shape" data-element-id="PlanItem_0iwf5mv" style="display: block;" transform="translate(836 114)"><g class="djs-visual"><rect x="0" y="0" width="100" height="40" rx="24" ry="24" style="stroke: black; stroke-width: 2px; fill: white;"/><text class="djs-label" style="font-family: Arial, sans-serif; font-size: 12px;"><tspan x="30.1640625" y="16.625">Thema </tspan><tspan x="16.7421875" y="30.125">kategorisiert </tspan></text></g><rect x="0" y="0" width="100" height="40" class="djs-hit" style="fill: none; stroke-opacity: 0; stroke: white; stroke-width: 15px;"/><rect x="-6" y="-6" width="112" height="52" class="djs-outline" style="fill: none;"/></g></g><g class="djs-group"><g class="djs-element djs-shape" data-element-id="PlanItem_0s6311j" style="display: block;" transform="translate(410 256)"><g class="djs-visual"><polygon points="20,200 0,180 0,20 20,0 330,0 350,20 350,180 330,200" style="fill-opacity: 0.95; fill: white; stroke: black; stroke-width: 2px;"/><text class="djs-label" style="font-family: Arial, sans-serif; font-size: 12px;" transform="translate(20 0)"><tspan x="5" y="18.5">Bearbeitung planen</tspan></text><rect x="0" y="0" width="30" height="24" rx="0" ry="0" style="stroke: black; stroke-width: 1.5px; fill: white;" transform="translate(160 -17)"/><path d="m160,-17 m 0,12 l 30,0 m -20,-12 l 0, 24 m 10, -24 l 0, 24 m -10, -6 l 10,0" style="fill: none; stroke-width: 1.5px; stroke: black;"/><rect x="0" y="0" width="14" height="14" rx="0" ry="0" style="stroke: black; stroke-width: 1px; fill: white;" transform="translate(168 183)"/><path d="m168,183 m 2,7 l 10,0" style="fill: none; stroke-width: 2px; stroke: black;"/></g><rect x="0" y="0" width="350" height="200" class="djs-hit" style="fill: none; stroke-opacity: 0; stroke: white; stroke-width: 15px;"/><rect x="-6" y="-6" width="362" height="212" class="djs-outline" style="fill: none;"/></g><g class="djs-children"><g class="djs-group"><g class="djs-element djs-shape" data-element-id="PlanItem_0bdwyet" style="display: block;" transform="translate(443 285)"><g class="djs-visual"><rect x="0" y="0" width="100" height="80" rx="10" ry="10" style="stroke: black; stroke-width: 2px; fill: white;"/><text class="djs-label" style="font-family: Arial, sans-serif; font-size: 12px;"><tspan x="21.3203125" y="36.625">Bearbeiter </tspan><tspan x="15.90625" y="50.125">identifizieren </tspan></text><path d="m43, 63 l 14,7 l -14,7 l 0,-14 z" style="fill: none; stroke-width: 1px; stroke: black;"/><path d="m 8,8 0,4 20,0 0,-4 z" style="fill: rgb(0, 0, 0); stroke-width: 1px; stroke: black;"/><path d="m 8,8 0,12 20,0 0,-12 zm 0,8 l 20,0 m -13,-4 l 0,8" style="fill: none; stroke-width: 1px; stroke: black;"/></g><rect x="0" y="0" width="100" height="80" class="djs-hit" style="fill: none; stroke-opacity: 0; stroke: white; stroke-width: 15px;"/><rect x="-6" y="-6" width="112" height="92" class="djs-outline" style="fill: none;"/></g></g><g class="djs-group"><g class="djs-element djs-shape" data-element-id="PlanItem_0btv8ff" style="display: block;" transform="translate(647 394)"><g class="djs-visual"><circle cx="18" cy="18" r="18" style="stroke: black; stroke-width: 2px; fill: white;"/><circle cx="18" cy="18" r="14" style="stroke: black; stroke-width: 2px; fill: white;"/><path d="m 20,15 c 0.909,-0.845 1.594,-2.049 1.594,-3.385 0,-2.554 -1.805,-4.62199999 -4.357,-4.62199999 -2.55199998,0 -4.28799998,2.06799999 -4.28799998,4.62199999 0,1.348 0.974,2.562 1.89599998,3.405 -0.52899998,0.187 -5.669,2.097 -5.794,4.7560005 v 6.718 h 17 v -6.718 c 0,-2.2980005 -5.5279996,-4.5950005 -6.0509996,-4.7760005 zm -8,6 l 0,5.5 m 11,0 l 0,-5" style="fill: none; stroke-width: 0.5px; stroke: black;"/><path d="m 20,15 m 2.162,1.009 c 0,2.4470005 -2.158,4.4310005 -4.821,4.4310005 -2.66499998,0 -4.822,-1.981 -4.822,-4.4310005" style="fill: none; stroke-width: 0.5px; stroke: black;"/><path d="m 20,15 m -6.9,-3.80 c 0,0 2.25099998,-2.358 4.27399998,-1.177 2.024,1.181 4.221,1.537 4.124,0.965 -0.098,-0.57 -0.117,-3.79099999 -4.191,-4.13599999 -3.57499998,0.001 -4.20799998,3.36699999 -4.20699998,4.34799999 z" style="fill: black; stroke-width: 0.5px; stroke: black;"/></g><rect x="0" y="0" width="36" height="36" class="djs-hit" style="fill: none; stroke-opacity: 0; stroke: white; stroke-width: 15px;"/><rect x="-6" y="-6" width="48" height="48" class="djs-outline" style="fill: none;"/></g></g><g class="djs-group"><g class="djs-element djs-shape" data-element-id="PlanItem_0btv8ff_label" style="display: block;" transform="translate(637 430)"><g class="djs-visual"><text class="djs-label" transform="translate(-18,0)" style="font-family: Arial, sans-serif; font-size: 11px;"><tspan x="19.21875" y="13.5">Bearbeiter </tspan><tspan x="18.0078125" y="27">identifiziert </tspan></text></g><rect x="0" y="0" width="55" height="27" class="djs-hit" style="fill: none; stroke-opacity: 0; stroke: white; stroke-width: 15px;"/><rect x="-6" y="-6" width="67" height="39" class="djs-outline" style="fill: none;"/></g></g><g class="djs-group"><g class="djs-element djs-shape" data-element-id="PlanItem_0v97ce1" style="display: block;" transform="translate(615 285)"><g class="djs-visual"><rect x="0" y="0" width="100" height="80" rx="10" ry="10" style="stroke: black; stroke-width: 2px; fill: white; stroke-dasharray: 12, 12.4; stroke-dashoffset: 13.6;"/><text class="djs-label" style="font-family: Arial, sans-serif; font-size: 12px;"><tspan x="28.90625" y="36.625">Quellen </tspan><tspan x="26.5859375" y="50.125">ermitteln </tspan></text></g><rect x="0" y="0" width="100" height="80" class="djs-hit" style="fill: none; stroke-opacity: 0; stroke: white; stroke-width: 15px;"/><rect x="-6" y="-6" width="112" height="92" class="djs-outline" style="fill: none;"/></g></g><g class="djs-group"><g class="djs-element djs-shape" data-element-id="EntryCriterion_1jpiw4n" style="display: block;" transform="translate(605 311)"><g class="djs-visual"><polygon points="10,0 20,14 10,28 0,14" style="stroke: black; stroke-width: 2px; fill: white;"/></g><rect x="0" y="0" width="20" height="28" class="djs-hit" style="fill: none; stroke-opacity: 0; stroke: white; stroke-width: 15px;"/><rect x="-6" y="-6" width="32" height="40" class="djs-outline" style="fill: none;"/></g></g></g></g><g class="djs-group"><g class="djs-element djs-shape" data-element-id="PlanItem_1egvehg" style="display: block;" transform="translate(1213 288)"><g class="djs-visual"><rect x="0" y="0" width="100" height="40" rx="24" ry="24" style="stroke: black; stroke-width: 2px; fill: white;"/><text class="djs-label" style="font-family: Arial, sans-serif; font-size: 12px;"><tspan x="21.3203125" y="16.625">Bearbeiter </tspan><tspan x="22.6484375" y="30.125">festgelegt </tspan></text></g><rect x="0" y="0" width="100" height="40" class="djs-hit" style="fill: none; stroke-opacity: 0; stroke: white; stroke-width: 15px;"/><rect x="-6" y="-6" width="112" height="52" class="djs-outline" style="fill: none;"/></g></g><g class="djs-group"><g class="djs-element djs-shape" data-element-id="PlanItem_13gvs3x" style="display: block;" transform="translate(1023 76)"><g class="djs-visual"><rect x="0" y="0" width="100" height="80" rx="10" ry="10" style="stroke: black; stroke-width: 2px; fill: white; stroke-dasharray: 12, 12.4; stroke-dashoffset: 13.6;"/><text class="djs-label" style="font-family: Arial, sans-serif; font-size: 12px;"><tspan x="28.2734375" y="29.875">Weitere </tspan><tspan x="9.140625" y="43.375">Anforderungen </tspan><tspan x="20.25" y="56.875">bestimmen </tspan></text></g><rect x="0" y="0" width="100" height="80" class="djs-hit" style="fill: none; stroke-opacity: 0; stroke: white; stroke-width: 15px;"/><rect x="-6" y="-6" width="112" height="92" class="djs-outline" style="fill: none;"/></g></g><g class="djs-group"><g class="djs-element djs-shape" data-element-id="PlanItem_1nigvsa" style="display: block;" transform="translate(837 213)"><g class="djs-visual"><rect x="0" y="0" width="357" height="168" rx="10" ry="10" style="stroke: black; stroke-width: 2px; fill: white; stroke-dasharray: 10, 12; fill-opacity: 0.95;"/><text class="djs-label" style="font-family: Arial, sans-serif; font-size: 12px;"><tspan x="5" y="18.5"/></text><rect x="0" y="0" width="14" height="14" rx="0" ry="0" style="stroke: black; stroke-width: 1px; fill: white;" transform="translate(171.5 151)"/><path d="m171.5,151 m 2,7 l 10,0" style="fill: none; stroke-width: 2px; stroke: black;"/></g><rect x="0" y="0" width="357" height="168" class="djs-hit" style="fill: none; stroke-opacity: 0; stroke: white; stroke-width: 15px;"/><rect x="-6" y="-6" width="369" height="180" class="djs-outline" style="fill: none;"/></g><g class="djs-children"><g class="djs-group"><g class="djs-element djs-shape" data-element-id="PlanItem_19qzlol" style="display: block;" transform="translate(858 271)"><g class="djs-visual"><circle cx="18" cy="18" r="18" style="stroke: black; stroke-width: 2px; fill: white;"/><circle cx="18" cy="18" r="14" style="stroke: black; stroke-width: 2px; fill: white;"/></g><rect x="0" y="0" width="36" height="36" class="djs-hit" style="fill: none; stroke-opacity: 0; stroke: white; stroke-width: 15px;"/><rect x="-6" y="-6" width="48" height="48" class="djs-outline" style="fill: none;"/></g></g><g class="djs-group"><g class="djs-element djs-shape" data-element-id="PlanItem_19qzlol_label" style="display: block;" transform="translate(848 307)"><g class="djs-visual"><text class="djs-label" transform="translate(-17.203125,0)" style="font-family: Arial, sans-serif; font-size: 11px;"><tspan x="18.3125" y="13.5">Freiwilliger </tspan><tspan x="17.203125" y="27">meldet sich </tspan></text></g><rect x="0" y="0" width="57" height="27" class="djs-hit" style="fill: none; stroke-opacity: 0; stroke: white; stroke-width: 15px;"/><rect x="-6" y="-6" width="69" height="39" class="djs-outline" style="fill: none;"/></g></g><g class="djs-group"><g class="djs-element djs-shape" data-element-id="PlanItem_1mh1ic5" style="display: block;" transform="translate(976 251)"><g class="djs-visual"><rect x="0" y="0" width="100" height="80" rx="10" ry="10" style="stroke: black; stroke-width: 2px; fill: white;"/><text class="djs-label" style="font-family: Arial, sans-serif; font-size: 12px;"><tspan x="10.3203125" y="29.875">Freiwilligen für </tspan><tspan x="7.5546875" y="43.375">die Bearbeitung </tspan><tspan x="24.5703125" y="56.875">eintragen </tspan></text><path d="m 17,15 c 0.234,-0.01 5.604,0.008 8.029,0.004 0.808,0 1.271,-0.172 1.417,-0.752 0.227,-0.898 -0.334,-1.314 -1.338,-1.316 -2.467,-0.01 -7.886,-0.004 -8.108,-0.004 -0.014,-0.079 0.016,-0.533 0,-0.61 0.195,-0.042 8.507,0.006 9.616,0.002 0.877,-0.007 1.35,-0.438 1.353,-1.208 0.003,-0.768 -0.479,-1.09 -1.35,-1.091 -2.968,-0.002 -9.619,-0.013 -9.619,-0.013 v -0.591 c 0,0 5.052,-0.016 7.225,-0.016 0.888,-0.002 1.354,-0.416 1.351,-1.193 -0.006,-0.761 -0.492,-1.196 -1.361,-1.196 -3.473,-0.005 -10.86,-0.003 -11.0829995,-0.003 -0.022,-0.047 -0.045,-0.094 -0.069,-0.139 0.3939995,-0.319 2.0409995,-1.626 2.4149995,-2.017 0.469,-0.4870005 0.519,-1.1650005 0.162,-1.6040005 -0.414,-0.511 -0.973,-0.5 -1.48,-0.236 -1.4609995,0.764 -6.5999995,3.6430005 -7.7329995,4.2710005 -0.9,0.499 -1.516,1.253 -1.882,2.19 -0.37000002,0.95 -0.17,2.01 -0.166,2.979 0.004,0.718 -0.27300002,1.345 -0.055,2.063 0.629,2.087 2.425,3.312 4.859,3.318 4.6179995,0.014 9.2379995,-0.139 13.8569995,-0.158 0.755,-0.004 1.171,-0.301 1.182,-1.033 0.012,-0.754 -0.423,-0.969 -1.183,-0.973 -1.778,-0.01 -5.824,-0.004 -6.04,-0.004 10e-4,-0.084 0.003,-0.586 10e-4,-0.67 z" style="fill: white; stroke-width: 1.25px; stroke: black;"/></g><rect x="0" y="0" width="100" height="80" class="djs-hit" style="fill: none; stroke-opacity: 0; stroke: white; stroke-width: 15px;"/><rect x="-6" y="-6" width="112" height="92" class="djs-outline" style="fill: none;"/></g></g><g class="djs-group"><g class="djs-element djs-shape" data-element-id="EntryCriterion_194fsbv" style="display: block;" transform="translate(966 275)"><g class="djs-visual"><polygon points="10,0 20,14 10,28 0,14" style="stroke: black; stroke-width: 2px; fill: white;"/></g><rect x="0" y="0" width="20" height="28" class="djs-hit" style="fill: none; stroke-opacity: 0; stroke: white; stroke-width: 15px;"/><rect x="-6" y="-6" width="32" height="40" class="djs-outline" style="fill: none;"/></g></g></g></g><g class="djs-group"><g class="djs-element djs-shape" data-element-id="CaseFileItem_0g98c6o" style="display: block;" transform="translate(1245 64)"><g class="djs-visual"><path d="m 0,0 28.23529411764706,0 7.058823529411765,8.196721311475411 0,40.98360655737705 -35.294117647058826,0 0,-49.18032786885246 28.23529411764706,0 0,8.196721311475411 7.058823529411765,0" style="fill: white; stroke-width: 2px; stroke: black;"/></g><rect x="0" y="0" width="36" height="50" class="djs-hit" style="fill: none; stroke-opacity: 0; stroke: white; stroke-width: 15px;"/><rect x="-6" y="-6" width="48" height="62" class="djs-outline" style="fill: none;"/></g></g><g class="djs-group"><g class="djs-element djs-shape" data-element-id="CaseFileItem_0g98c6o_label" style="display: block;" transform="translate(1222 114)"><g class="djs-visual"><text class="djs-label" transform="translate(-2.609375,0)" style="font-family: Arial, sans-serif; font-size: 11px;"><tspan x="4.1171875" y="13.5">Thema evaluiert</tspan></text></g><rect x="0" y="0" width="82" height="14" class="djs-hit" style="fill: none; stroke-opacity: 0; stroke: white; stroke-width: 15px;"/><rect x="-6" y="-6" width="94" height="26" class="djs-outline" style="fill: none;"/></g></g><g class="djs-group"><g class="djs-element djs-shape" data-element-id="EntryCriterion_0psf1xd" style="display: block;" transform="translate(1252 314)"><g class="djs-visual"><polygon points="10,0 20,14 10,28 0,14" style="stroke: black; stroke-width: 2px; fill: white;"/></g><rect x="0" y="0" width="20" height="28" class="djs-hit" style="fill: none; stroke-opacity: 0; stroke: white; stroke-width: 15px;"/><rect x="-6" y="-6" width="32" height="40" class="djs-outline" style="fill: none;"/></g></g><g class="djs-group"><g class="djs-element djs-shape" data-element-id="EntryCriterion_0lj9wha" style="display: block;" transform="translate(1203 293)"><g class="djs-visual"><polygon points="10,0 20,14 10,28 0,14" style="stroke: black; stroke-width: 2px; fill: white;"/></g><rect x="0" y="0" width="20" height="28" class="djs-hit" style="fill: none; stroke-opacity: 0; stroke: white; stroke-width: 15px;"/><rect x="-6" y="-6" width="32" height="40" class="djs-outline" style="fill: none;"/></g></g><g class="djs-group"><g class="djs-element djs-shape" data-element-id="EntryCriterion_0b70uml" style="display: block;" transform="translate(750 294)"><g class="djs-visual"><polygon points="10,0 20,14 10,28 0,14" style="stroke: black; stroke-width: 2px; fill: white;"/></g><rect x="0" y="0" width="20" height="28" class="djs-hit" style="fill: none; stroke-opacity: 0; stroke: white; stroke-width: 15px;"/><rect x="-6" y="-6" width="32" height="40" class="djs-outline" style="fill: none;"/></g></g><g class="djs-group"><g class="djs-element djs-shape" data-element-id="EntryCriterion_0yuxexq" style="display: block;" transform="translate(826 119)"><g class="djs-visual"><polygon points="10,0 20,14 10,28 0,14" style="stroke: black; stroke-width: 2px; fill: white;"/></g><rect x="0" y="0" width="20" height="28" class="djs-hit" style="fill: none; stroke-opacity: 0; stroke: white; stroke-width: 15px;"/><rect x="-6" y="-6" width="32" height="40" class="djs-outline" style="fill: none;"/></g></g><g class="djs-group"><g class="djs-element djs-shape" data-element-id="ExitCriterion_19i6qjb" style="display: block;" transform="translate(1373 294)"><g class="djs-visual"><polygon points="10,0 20,14 10,28 0,14" style="stroke: black; stroke-width: 2px; fill: black;"/></g><rect x="0" y="0" width="20" height="28" class="djs-hit" style="fill: none; stroke-opacity: 0; stroke: white; stroke-width: 15px;"/><rect x="-6" y="-6" width="32" height="40" class="djs-outline" style="fill: none;"/></g></g><g class="djs-group"><g class="djs-element djs-shape" data-element-id="ExitCriterion_0q2z9u8" style="display: block;" transform="translate(1373 75)"><g class="djs-visual"><polygon points="10,0 20,14 10,28 0,14" style="stroke: black; stroke-width: 2px; fill: black;"/></g><rect x="0" y="0" width="20" height="28" class="djs-hit" style="fill: none; stroke-opacity: 0; stroke: white; stroke-width: 15px;"/><rect x="-6" y="-6" width="32" height="40" class="djs-outline" style="fill: none;"/></g></g><g class="djs-group"><g class="djs-element djs-connection" data-element-id="PlanItemOnPart_01lcn9h_di" style="display: block;"><g class="djs-visual"><path d="m  760,134L793,134 L793,133 L826,133 " style="fill: none; stroke-width: 1.5px; stroke: black; stroke-dasharray: 10, 5, 2, 5, 2, 5;"/></g><polyline points="760,134 793,134 793,133 826,133 " class="djs-hit" style="fill: none; stroke-opacity: 0; stroke: white; stroke-width: 15px;"/><rect x="754" y="127" width="78" height="13" class="djs-outline" style="fill: none;"/></g></g><g class="djs-group"><g class="djs-element djs-shape" data-element-id="PlanItemOnPart_01lcn9h_di_label" style="display: block;" transform="translate(775 114)"><g class="djs-visual"><text class="djs-label" transform="translate(-19.640625,0)" style="font-family: Arial, sans-serif; font-size: 11px;"><tspan x="19.640625" y="13.5">[complete]</tspan></text></g><rect x="0" y="0" width="51" height="14" class="djs-hit" style="fill: none; stroke-opacity: 0; stroke: white; stroke-width: 15px;"/><rect x="-6" y="-6" width="63" height="26" class="djs-outline" style="fill: none;"/></g></g><g class="djs-group"><g class="djs-element djs-connection" data-element-id="CaseFileItemOnPart_1onlmzn_di" style="display: block;"><g class="djs-visual"><path d="m  1281,89L1373,89 " style="fill: none; stroke-width: 1.5px; stroke: black; stroke-dasharray: 10, 5, 2, 5, 2, 5;"/></g><polyline points="1281,89 1373,89 " class="djs-hit" style="fill: none; stroke-opacity: 0; stroke: white; stroke-width: 15px;"/><rect x="1275" y="83" width="104" height="12" class="djs-outline" style="fill: none;"/></g></g><g class="djs-group"><g class="djs-element djs-shape" data-element-id="CaseFileItemOnPart_1onlmzn_di_label" style="display: block;" transform="translate(1307 69)"><g class="djs-visual"><text class="djs-label" transform="translate(-25.125,0)" style="font-family: Arial, sans-serif; font-size: 11px;"><tspan x="25.1328125" y="13.5">[update]</tspan></text></g><rect x="0" y="0" width="40" height="14" class="djs-hit" style="fill: none; stroke-opacity: 0; stroke: white; stroke-width: 15px;"/><rect x="-6" y="-6" width="52" height="26" class="djs-outline" style="fill: none;"/></g></g><g class="djs-group"><g class="djs-element djs-connection" data-element-id="PlanItemOnPart_0rfzk76_di" style="display: block;"><g class="djs-visual"><path d="m  886,154L886,200 L792,200 L792,308 L773,308 " style="fill: none; stroke-width: 1.5px; stroke: black; stroke-dasharray: 10, 5, 2, 5, 2, 5;"/></g><polyline points="886,154 886,200 792,200 792,308 773,308 " class="djs-hit" style="fill: none; stroke-opacity: 0; stroke: white; stroke-width: 15px;"/><rect x="767" y="148" width="125" height="166" class="djs-outline" style="fill: none;"/></g></g><g class="djs-group"><g class="djs-element djs-shape" data-element-id="PlanItemOnPart_0rfzk76_di_label" style="display: block;" transform="translate(779 181)"><g class="djs-visual"><text class="djs-label" transform="translate(-28.5,0)" style="font-family: Arial, sans-serif; font-size: 11px;"><tspan x="28.5078125" y="13.5">[occur]</tspan></text></g><rect x="0" y="0" width="33" height="14" class="djs-hit" style="fill: none; stroke-opacity: 0; stroke: white; stroke-width: 15px;"/><rect x="-6" y="-6" width="45" height="26" class="djs-outline" style="fill: none;"/></g></g><g class="djs-group"><g class="djs-element djs-connection" data-element-id="PlanItemOnPart_10n6z17_di" style="display: block;"><g class="djs-visual"><path d="m  543,325L571,325 L571,325 L605,325 " style="fill: none; stroke-width: 1.5px; stroke: black; stroke-dasharray: 10, 5, 2, 5, 2, 5;"/></g><polyline points="543,325 571,325 571,325 605,325 " class="djs-hit" style="fill: none; stroke-opacity: 0; stroke: white; stroke-width: 15px;"/><rect x="537" y="319" width="74" height="12" class="djs-outline" style="fill: none;"/></g></g><g class="djs-group"><g class="djs-element djs-shape" data-element-id="PlanItemOnPart_10n6z17_di_label" style="display: block;" transform="translate(551 327)"><g class="djs-visual"><text class="djs-label" transform="translate(-19.640625,0)" style="font-family: Arial, sans-serif; font-size: 11px;"><tspan x="19.640625" y="13.5">[complete]</tspan></text></g><rect x="0" y="0" width="51" height="14" class="djs-hit" style="fill: none; stroke-opacity: 0; stroke: white; stroke-width: 15px;"/><rect x="-6" y="-6" width="63" height="26" class="djs-outline" style="fill: none;"/></g></g><g class="djs-group"><g class="djs-element djs-connection" data-element-id="PlanItemOnPart_08tu0y6_di" style="display: block;"><g class="djs-visual"><path d="m  894,289L966,289 " style="fill: none; stroke-width: 1.5px; stroke: black; stroke-dasharray: 10, 5, 2, 5, 2, 5;"/></g><polyline points="894,289 966,289 " class="djs-hit" style="fill: none; stroke-opacity: 0; stroke: white; stroke-width: 15px;"/><rect x="888" y="283" width="84" height="12" class="djs-outline" style="fill: none;"/></g></g><g class="djs-group"><g class="djs-element djs-shape" data-element-id="PlanItemOnPart_08tu0y6_di_label" style="display: block;" transform="translate(912 270)"><g class="djs-visual"><text class="djs-label" transform="translate(-28.5,0)" style="font-family: Arial, sans-serif; font-size: 11px;"><tspan x="28.5078125" y="13.5">[occur]</tspan></text></g><rect x="0" y="0" width="33" height="14" class="djs-hit" style="fill: none; stroke-opacity: 0; stroke: white; stroke-width: 15px;"/><rect x="-6" y="-6" width="45" height="26" class="djs-outline" style="fill: none;"/></g></g><g class="djs-group"><g class="djs-element djs-connection" data-element-id="PlanItemOnPart_0t4sfk2_di" style="display: block;"><g class="djs-visual"><path d="m  1076,291L1125,291 L1125,307 L1203,307 " style="fill: none; stroke-width: 1.5px; stroke: black; stroke-dasharray: 10, 5, 2, 5, 2, 5;"/></g><polyline points="1076,291 1125,291 1125,307 1203,307 " class="djs-hit" style="fill: none; stroke-opacity: 0; stroke: white; stroke-width: 15px;"/><rect x="1070" y="285" width="139" height="28" class="djs-outline" style="fill: none;"/></g></g><g class="djs-group"><g class="djs-element djs-shape" data-element-id="PlanItemOnPart_0t4sfk2_di_label" style="display: block;" transform="translate(1133 284)"><g class="djs-visual"><text class="djs-label" transform="translate(-19.640625,0)" style="font-family: Arial, sans-serif; font-size: 11px;"><tspan x="19.640625" y="13.5">[complete]</tspan></text></g><rect x="0" y="0" width="51" height="14" class="djs-hit" style="fill: none; stroke-opacity: 0; stroke: white; stroke-width: 15px;"/><rect x="-6" y="-6" width="63" height="26" class="djs-outline" style="fill: none;"/></g></g><g class="djs-group"><g class="djs-element djs-connection" data-element-id="PlanItemOnPart_0sjiwgg_di" style="display: block;"><g class="djs-visual"><path d="m  683,412L1262,412 L1262,342 " style="fill: none; stroke-width: 1.5px; stroke: black; stroke-dasharray: 10, 5, 2, 5, 2, 5;"/></g><polyline points="683,412 1262,412 1262,342 " class="djs-hit" style="fill: none; stroke-opacity: 0; stroke: white; stroke-width: 15px;"/><rect x="677" y="336" width="591" height="82" class="djs-outline" style="fill: none;"/></g></g><g class="djs-group"><g class="djs-element djs-shape" data-element-id="PlanItemOnPart_0sjiwgg_di_label" style="display: block;" transform="translate(838 396)"><g class="djs-visual"><text class="djs-label" transform="translate(-28.5,0)" style="font-family: Arial, sans-serif; font-size: 11px;"><tspan x="28.5078125" y="13.5">[occur]</tspan></text></g><rect x="0" y="0" width="33" height="14" class="djs-hit" style="fill: none; stroke-opacity: 0; stroke: white; stroke-width: 15px;"/><rect x="-6" y="-6" width="45" height="26" class="djs-outline" style="fill: none;"/></g></g><g class="djs-group"><g class="djs-element djs-connection" data-element-id="PlanItemOnPart_01b931s_di" style="display: block;"><g class="djs-visual"><path d="m  1313,308L1373,308 " style="fill: none; stroke-width: 1.5px; stroke: black; stroke-dasharray: 10, 5, 2, 5, 2, 5;"/></g><polyline points="1313,308 1373,308 " class="djs-hit" style="fill: none; stroke-opacity: 0; stroke: white; stroke-width: 15px;"/><rect x="1307" y="302" width="72" height="12" class="djs-outline" style="fill: none;"/></g></g><g class="djs-group"><g class="djs-element djs-shape" data-element-id="PlanItemOnPart_01b931s_di_label" style="display: block;" transform="translate(1325 291)"><g class="djs-visual"><text class="djs-label" transform="translate(-28.5,0)" style="font-family: Arial, sans-serif; font-size: 11px;"><tspan x="28.5078125" y="13.5">[occur]</tspan></text></g><rect x="0" y="0" width="33" height="14" class="djs-hit" style="fill: none; stroke-opacity: 0; stroke: white; stroke-width: 15px;"/><rect x="-6" y="-6" width="45" height="26" class="djs-outline" style="fill: none;"/></g></g></g></g></svg>